0
SECTION
2
HEADER
9
$ACADVER
1
AC1006
9
$INSBASE
10
0.0
20
0.0
30
0.0
9
$INSUNITS
70
1
9
$EXTMIN
10
0.9084327643036508
20
1.354086368673925
30
0.0
9
$EXTMAX
10
1.9084327643036507
20
1.6422727538822541
30
0.0
0
ENDSEC
0
SECTION
2
ENTITIES
0
LINE
5
4573490200
8
0
62
0
10
1.2632463760885353
20
1.5864830524846243
30
0.0
11
0.908432764303651
21
1.5306933510869944
31
0.0
0
LINE
5
4573490424
8
0
62
0
10
1.274204031223919
20
1.574455140596442
30
0.0
11
1.2632463760885353
21
1.5864830524846243
31
0.0
0
LINE
5
4573490480
8
0
62
0
10
1.3813345696394128
20
1.5967111644075234
30
0.0
11
1.3198277487078045
21
1.5659577519258092
31
0.0
0
LINE
5
4573490536
8
0
62
0
10
1.4028766906784493
20
1.5820932956013927
30
0.0
11
1.3813345696394128
21
1.5967111644075234
31
0.0
0
LINE
5
4573490592
8
0
62
0
10
1.5198789856951667
20
1.6134480748268116
30
0.0
11
1.4397954207895864
21
1.578645401815475
31
0.0
0
LINE
5
4573490648
8
0
62
0
10
1.7690470418042379
20
1.6422727538822541
30
0.0
11
1.5198789856951667
21
1.6134480748268116
31
0.0
0
LINE
5
4573490704
8
0
62
0
10
0.908432764303651
20
1.3791313289567675
30
0.0
11
1.1380873222139818
21
1.3672647844608405
31
0.0
0
LINE
5
4573490760
8
0
62
0
10
1.1380873222139818
20
1.3672647844608405
30
0.0
11
1.312527275759374
21
1.4776931347592461
31
0.0
0
LINE
5
4573490816
8
0
62
0
10
1.3042572717994627
20
1.3586785708076718
30
0.0
11
1.393130671399698
21
1.354086368673925
31
0.0
0
LINE
5
4573490872
8
0
62
0
10
1.393130671399698
20
1.354086368673925
30
0.0
11
1.422865742696751
21
1.3811755808105135
31
0.0
0
LINE
5
4573490928
8
0
62
0
10
1.458416426799559
20
1.3899718150177205
30
0.0
11
1.546823925954267
21
1.3670435603206146
31
0.0
0
LINE
5
4573490984
8
0
62
0
10
1.546823925954267
20
1.3670435603206146
30
0.0
11
1.7792570471590052
21
1.3550334439083802
31
0.0
0
ARC
8
0
62
0
40
0.14403531227
50
275.885177253
51
448.186299107
10
1.7644883578924961
20
1.4983096003267167
30
0.0
0
LINE
5
4573491096
8
0
62
0
10
1.779257047159005
20
1.5918295655352306
30
0.0
11
1.4996609228626838
21
1.5306933510869944
31
0.0
0
ARC
8
0
62
0
40
0.0384541721108
50
222.334112445
51
296.565052679
10
1.3026305192343144
20
1.600352208618207
30
0.0
0
ARC
8
0
62
0
40
0.0384541721108
50
235.840303709
51
293.488776246
10
1.424468763828795
20
1.6139131907897715
30
0.0
0
ARC
8
0
62
0
40
0.0384541721108
50
435.460813205
51
492.334112445
10
1.4487628107185144
20
1.3527490928001182
30
0.0
0
LINE
5
4573442232
8
0
62
0
10
1.3616860465017346
20
1.451923212162956
30
0.0
11
1.3639480242509683
21
1.396465506583111
31
0.0
0
LINE
5
4573442288
8
0
62
0
10
1.312527275759374
20
1.4776931347592461
30
0.0
11
1.3616860465017346
21
1.451923212162956
31
0.0
0
LINE
5
4573442344
8
0
62
0
10
1.3639480242509683
20
1.396465506583111
30
0.0
11
1.3042572717994627
21
1.3586785708076718
31
0.0
0
LINE
5
4573442400
8
0
62
0
10
1.4996609228626838
20
1.5306933510869944
30
0.0
11
1.486186114045876
21
1.4883842425603138
31
0.0
0
LINE
5
4573442456
8
0
62
0
10
1.486186114045876
20
1.4883842425603138
30
0.0
11
1.5160894724330505
21
1.455560161550479
31
0.0
0
LINE
5
4573442512
8
0
62
0
10
1.846539603530148
20
1.5179753832631016
30
0.0
11
1.779257047159005
21
1.5918295655352306
31
0.0
0
LINE
5
4573442568
8
0
62
0
10
1.8162212836923293
20
1.4227798890780694
30
0.0
11
1.846539603530148
21
1.5179753832631016
31
0.0
0
LINE
5
4573442624
8
0
62
0
10
1.716229970305104
20
1.4009158865151317
30
0.0
11
1.8162212836923293
21
1.4227798890780694
31
0.0
0
LINE
5
4573442680
8
0
62
0
10
1.6986604962769576
20
1.4201995144039596
30
0.0
11
1.716229970305104
21
1.4009158865151317
31
0.0
0
LINE
5
4573442736
8
0
62
0
10
1.6735852997269303
20
1.4147165965077535
30
0.0
11
1.6986604962769576
21
1.4201995144039596
31
0.0
0
LINE
5
4573442792
8
0
62
0
10
1.6612489677063098
20
1.4282565144254764
30
0.0
11
1.6735852997269303
21
1.4147165965077535
31
0.0
0
LINE
5
4573442848
8
0
62
0
10
1.636173771156283
20
1.4227735965292707
30
0.0
11
1.6612489677063098
21
1.4282565144254764
31
0.0
0
LINE
5
4573442904
8
0
62
0
10
1.6212208681318994
20
1.4391853694325458
30
0.0
11
1.636173771156283
21
1.4227735965292707
31
0.0
0
LINE
5
4573442960
8
0
62
0
10
1.5961456715818723
20
1.43370245153634
30
0.0
11
1.6212208681318994
21
1.4391853694325458
31
0.0
0
LINE
5
4573443016
8
0
62
0
10
1.5811927685574885
20
1.4501142244396155
30
0.0
11
1.5961456715818723
21
1.43370245153634
31
0.0
0
LINE
5
4573443072
8
0
62
0
10
1.5561175720074611
20
1.444631306543409
30
0.0
11
1.5811927685574885
21
1.4501142244396155
31
0.0
0
LINE
5
4573443128
8
0
62
0
10
1.5411646689830776
20
1.4610430794466847
30
0.0
11
1.5561175720074611
21
1.444631306543409
31
0.0
0
LINE
5
4573443184
8
0
62
0
10
1.5160894724330505
20
1.455560161550479
30
0.0
11
1.5411646689830776
21
1.4610430794466847
31
0.0
0
LINE
5
4573443240
8
0
62
0
10
0.908432764303651
20
1.503358541106386
30
0.0
11
0.9568789653881556
21
1.4549123400218813
31
0.0
0
LINE
5
4573443296
8
0
62
0
10
0.9568789653881556
20
1.4549123400218813
30
0.0
11
0.9084327643036508
21
1.4064661389373763
31
0.0
0
LINE
5
4573443352
8
0
62
0
10
0.9084327643036508
20
1.4064661389373763
30
0.0
11
0.908432764303651
21
1.3791313289567675
31
0.0
0
LINE
5
4573443408
8
0
62
0
10
0.908432764303651
20
1.5306933510869944
30
0.0
11
0.908432764303651
21
1.503358541106386
31
0.0
0
ENDSEC
0
EOF
